<?xml version="1.0" encoding="utf-8"?>
<!-- Generator: Adobe Illustrator 27.7.0, SVG Export Plug-In . SVG Version: 6.00 Build 0)  -->
<svg version="1.1" id="Layer_1" xmlns="http://www.w3.org/2000/svg" xmlns:xlink="http://www.w3.org/1999/xlink" x="0px" y="0px"
	 viewBox="0 0 24 24" style="enable-background:new 0 0 24 24;" xml:space="preserve">
<g>
	<g>
		<path d="M10.7,1.5v9.4h-9V1.5H10.7 M11.5,0.7H0.8v11h10.7V0.7L11.5,0.7z"/>
	</g>
	<g>
		<path d="M22.2,1.5v9.4h-9V1.5H22.2 M23,0.7H12.4v11H23V0.7L23,0.7z"/>
	</g>
	<g>
		<ellipse cx="6.2" cy="5.5" rx="2.5" ry="2.3"/>
	</g>
	<path d="M2.7,11.4c0-2,1.5-3.6,3.4-3.6s3.4,1.6,3.4,3.6"/>
	<g>
		<ellipse cx="17.7" cy="5.5" rx="2.5" ry="2.3"/>
	</g>
	<path d="M14.3,11.4c0-2,1.5-3.6,3.4-3.6s3.4,1.6,3.4,3.6"/>
	<g>
		<path d="M10.7,13v9.4h-9V13H10.7 M11.5,12.2H0.8v11h10.7V12.2L11.5,12.2z"/>
	</g>
	<g>
		<path d="M22.2,13v9.4h-9V13H22.2 M23,12.2H12.4v11H23V12.2L23,12.2z"/>
	</g>
	<g>
		<ellipse cx="6.2" cy="17" rx="2.5" ry="2.3"/>
	</g>
	<path d="M2.7,22.9c0-2,1.5-3.6,3.4-3.6s3.4,1.6,3.4,3.6"/>
	<g>
		<ellipse cx="17.7" cy="17" rx="2.5" ry="2.3"/>
	</g>
	<path d="M14.3,22.9c0-2,1.5-3.6,3.4-3.6s3.4,1.6,3.4,3.6"/>
</g>
</svg>
