<?xml version="1.0" encoding="UTF-8"?>
<svg xmlns="http://www.w3.org/2000/svg" version="1.1" viewBox="0 0 24 24">
  <!-- Generator: Adobe Illustrator 28.6.0, SVG Export Plug-In . SVG Version: 1.2.0 Build 709)  -->
  <g>
    <g id="Layer_1">
      <g>
        <g>
          <ellipse cx="6.4" cy="4.4" rx="2.9" ry="2.6"/>
          <path d="M2.5,10.8c0-2.3,1.7-4.1,3.9-4.1s3.9,1.8,3.9,4.1"/>
        </g>
        <g>
          <ellipse cx="17.6" cy="4.4" rx="2.9" ry="2.6"/>
          <path d="M13.8,10.8c0-2.3,1.7-4.1,3.9-4.1s3.9,1.8,3.9,4.1"/>
        </g>
        <g>
          <ellipse cx="6.4" cy="15.9" rx="2.9" ry="2.6"/>
          <path d="M2.5,22.2c0-2.3,1.7-4.1,3.9-4.1s3.9,1.8,3.9,4.1"/>
        </g>
        <g>
          <ellipse cx="17.6" cy="15.9" rx="2.9" ry="2.6"/>
          <path d="M13.8,22.2c0-2.3,1.7-4.1,3.9-4.1s3.9,1.8,3.9,4.1"/>
        </g>
      </g>
    </g>
  </g>
</svg>